<?xml version="1.0" encoding="utf-8"?>
<svg xmlns="http://www.w3.org/2000/svg" xmlns:xlink="http://www.w3.org/1999/xlink" width="600" height="400" viewBox="0 0 2400 1600">
<defs>
  <clipPath id="clip740">
    <rect x="0" y="0" width="2400" height="1600"/>
  </clipPath>
</defs>
<path clip-path="url(#clip740)" d="
M0 1600 L2400 1600 L2400 0 L0 0  Z
  " fill="#ffffff" fill-rule="evenodd" fill-opacity="1"/>
<defs>
  <clipPath id="clip741">
    <rect x="480" y="0" width="1681" height="1600"/>
  </clipPath>
</defs>
<path clip-path="url(#clip740)" d="
M186.274 419.781 L2352.76 419.781 L2352.76 47.2441 L186.274 47.2441  Z
  " fill="#ffffff" fill-rule="evenodd" fill-opacity="1"/>
<defs>
  <clipPath id="clip742">
    <rect x="186" y="47" width="2167" height="374"/>
  </clipPath>
</defs>
<polyline clip-path="url(#clip742)" style="stroke:#000000; stroke-width:2; stroke-opacity:0.1; fill:none" points="
  233.872,419.781 233.872,47.2441 
  "/>
<polyline clip-path="url(#clip742)" style="stroke:#000000; stroke-width:2; stroke-opacity:0.1; fill:none" points="
  919.728,419.781 919.728,47.2441 
  "/>
<polyline clip-path="url(#clip742)" style="stroke:#000000; stroke-width:2; stroke-opacity:0.1; fill:none" points="
  1605.58,419.781 1605.58,47.2441 
  "/>
<polyline clip-path="url(#clip742)" style="stroke:#000000; stroke-width:2; stroke-opacity:0.1; fill:none" points="
  2291.44,419.781 2291.44,47.2441 
  "/>
<polyline clip-path="url(#clip740)" style="stroke:#000000; stroke-width:4; stroke-opacity:1; fill:none" points="
  186.274,419.781 2352.76,419.781 
  "/>
<polyline clip-path="url(#clip740)" style="stroke:#000000; stroke-width:4; stroke-opacity:1; fill:none" points="
  233.872,419.781 233.872,415.311 
  "/>
<polyline clip-path="url(#clip740)" style="stroke:#000000; stroke-width:4; stroke-opacity:1; fill:none" points="
  919.728,419.781 919.728,415.311 
  "/>
<polyline clip-path="url(#clip740)" style="stroke:#000000; stroke-width:4; stroke-opacity:1; fill:none" points="
  1605.58,419.781 1605.58,415.311 
  "/>
<polyline clip-path="url(#clip740)" style="stroke:#000000; stroke-width:4; stroke-opacity:1; fill:none" points="
  2291.44,419.781 2291.44,415.311 
  "/>
<path clip-path="url(#clip740)" d="M233.872 448.972 Q230.261 448.972 228.433 452.537 Q226.627 456.078 226.627 463.208 Q226.627 470.314 228.433 473.879 Q230.261 477.421 233.872 477.421 Q237.507 477.421 239.312 473.879 Q241.141 470.314 241.141 463.208 Q241.141 456.078 239.312 452.537 Q237.507 448.972 233.872 448.972 M233.872 445.268 Q239.683 445.268 242.738 449.875 Q245.817 454.458 245.817 463.208 Q245.817 471.935 242.738 476.541 Q239.683 481.125 233.872 481.125 Q228.062 481.125 224.984 476.541 Q221.928 471.935 221.928 463.208 Q221.928 454.458 224.984 449.875 Q228.062 445.268 233.872 445.268 Z" fill="#000000" fill-rule="evenodd" fill-opacity="1" /><path clip-path="url(#clip740)" d="M894.428 445.893 L912.784 445.893 L912.784 449.828 L898.71 449.828 L898.71 458.301 Q899.729 457.953 900.747 457.791 Q901.766 457.606 902.784 457.606 Q908.571 457.606 911.951 460.777 Q915.33 463.949 915.33 469.365 Q915.33 474.944 911.858 478.046 Q908.386 481.125 902.066 481.125 Q899.891 481.125 897.622 480.754 Q895.377 480.384 892.969 479.643 L892.969 474.944 Q895.053 476.078 897.275 476.634 Q899.497 477.189 901.974 477.189 Q905.978 477.189 908.316 475.083 Q910.654 472.976 910.654 469.365 Q910.654 465.754 908.316 463.648 Q905.978 461.541 901.974 461.541 Q900.099 461.541 898.224 461.958 Q896.372 462.375 894.428 463.254 L894.428 445.893 Z" fill="#000000" fill-rule="evenodd" fill-opacity="1" /><path clip-path="url(#clip740)" d="M934.543 448.972 Q930.932 448.972 929.103 452.537 Q927.298 456.078 927.298 463.208 Q927.298 470.314 929.103 473.879 Q930.932 477.421 934.543 477.421 Q938.177 477.421 939.983 473.879 Q941.812 470.314 941.812 463.208 Q941.812 456.078 939.983 452.537 Q938.177 448.972 934.543 448.972 M934.543 445.268 Q940.353 445.268 943.409 449.875 Q946.488 454.458 946.488 463.208 Q946.488 471.935 943.409 476.541 Q940.353 481.125 934.543 481.125 Q928.733 481.125 925.654 476.541 Q922.599 471.935 922.599 463.208 Q922.599 454.458 925.654 449.875 Q928.733 445.268 934.543 445.268 Z" fill="#000000" fill-rule="evenodd" fill-opacity="1" /><path clip-path="url(#clip740)" d="M1565.19 476.518 L1572.83 476.518 L1572.83 450.152 L1564.52 451.819 L1564.52 447.56 L1572.78 445.893 L1577.46 445.893 L1577.46 476.518 L1585.1 476.518 L1585.1 480.453 L1565.19 480.453 L1565.19 476.518 Z" fill="#000000" fill-rule="evenodd" fill-opacity="1" /><path clip-path="url(#clip740)" d="M1604.54 448.972 Q1600.93 448.972 1599.1 452.537 Q1597.3 456.078 1597.3 463.208 Q1597.3 470.314 1599.1 473.879 Q1600.93 477.421 1604.54 477.421 Q1608.18 477.421 1609.98 473.879 Q1611.81 470.314 1611.81 463.208 Q1611.81 456.078 1609.98 452.537 Q1608.18 448.972 1604.54 448.972 M1604.54 445.268 Q1610.35 445.268 1613.41 449.875 Q1616.49 454.458 1616.49 463.208 Q1616.49 471.935 1613.41 476.541 Q1610.35 481.125 1604.54 481.125 Q1598.73 481.125 1595.65 476.541 Q1592.6 471.935 1592.6 463.208 Q1592.6 454.458 1595.65 449.875 Q1598.73 445.268 1604.54 445.268 Z" fill="#000000" fill-rule="evenodd" fill-opacity="1" /><path clip-path="url(#clip740)" d="M1634.7 448.972 Q1631.09 448.972 1629.26 452.537 Q1627.46 456.078 1627.46 463.208 Q1627.46 470.314 1629.26 473.879 Q1631.09 477.421 1634.7 477.421 Q1638.34 477.421 1640.14 473.879 Q1641.97 470.314 1641.97 463.208 Q1641.97 456.078 1640.14 452.537 Q1638.34 448.972 1634.7 448.972 M1634.7 445.268 Q1640.51 445.268 1643.57 449.875 Q1646.65 454.458 1646.65 463.208 Q1646.65 471.935 1643.57 476.541 Q1640.51 481.125 1634.7 481.125 Q1628.89 481.125 1625.82 476.541 Q1622.76 471.935 1622.76 463.208 Q1622.76 454.458 1625.82 449.875 Q1628.89 445.268 1634.7 445.268 Z" fill="#000000" fill-rule="evenodd" fill-opacity="1" /><path clip-path="url(#clip740)" d="M2251.05 476.518 L2258.69 476.518 L2258.69 450.152 L2250.38 451.819 L2250.38 447.56 L2258.64 445.893 L2263.32 445.893 L2263.32 476.518 L2270.95 476.518 L2270.95 480.453 L2251.05 480.453 L2251.05 476.518 Z" fill="#000000" fill-rule="evenodd" fill-opacity="1" /><path clip-path="url(#clip740)" d="M2280.45 445.893 L2298.8 445.893 L2298.8 449.828 L2284.73 449.828 L2284.73 458.301 Q2285.75 457.953 2286.76 457.791 Q2287.78 457.606 2288.8 457.606 Q2294.59 457.606 2297.97 460.777 Q2301.35 463.949 2301.35 469.365 Q2301.35 474.944 2297.88 478.046 Q2294.4 481.125 2288.08 481.125 Q2285.91 481.125 2283.64 480.754 Q2281.39 480.384 2278.99 479.643 L2278.99 474.944 Q2281.07 476.078 2283.29 476.634 Q2285.51 477.189 2287.99 477.189 Q2292 477.189 2294.33 475.083 Q2296.67 472.976 2296.67 469.365 Q2296.67 465.754 2294.33 463.648 Q2292 461.541 2287.99 461.541 Q2286.12 461.541 2284.24 461.958 Q2282.39 462.375 2280.45 463.254 L2280.45 445.893 Z" fill="#000000" fill-rule="evenodd" fill-opacity="1" /><path clip-path="url(#clip740)" d="M2320.56 448.972 Q2316.95 448.972 2315.12 452.537 Q2313.32 456.078 2313.32 463.208 Q2313.32 470.314 2315.12 473.879 Q2316.95 477.421 2320.56 477.421 Q2324.19 477.421 2326 473.879 Q2327.83 470.314 2327.83 463.208 Q2327.83 456.078 2326 452.537 Q2324.19 448.972 2320.56 448.972 M2320.56 445.268 Q2326.37 445.268 2329.43 449.875 Q2332.5 454.458 2332.5 463.208 Q2332.5 471.935 2329.43 476.541 Q2326.37 481.125 2320.56 481.125 Q2314.75 481.125 2311.67 476.541 Q2308.62 471.935 2308.62 463.208 Q2308.62 454.458 2311.67 449.875 Q2314.75 445.268 2320.56 445.268 Z" fill="#000000" fill-rule="evenodd" fill-opacity="1" /><polyline clip-path="url(#clip742)" style="stroke:#000000; stroke-width:2; stroke-opacity:0.1; fill:none" points="
  186.274,406.861 2352.76,406.861 
  "/>
<polyline clip-path="url(#clip742)" style="stroke:#000000; stroke-width:2; stroke-opacity:0.1; fill:none" points="
  186.274,333.099 2352.76,333.099 
  "/>
<polyline clip-path="url(#clip742)" style="stroke:#000000; stroke-width:2; stroke-opacity:0.1; fill:none" points="
  186.274,259.336 2352.76,259.336 
  "/>
<polyline clip-path="url(#clip742)" style="stroke:#000000; stroke-width:2; stroke-opacity:0.1; fill:none" points="
  186.274,185.574 2352.76,185.574 
  "/>
<polyline clip-path="url(#clip742)" style="stroke:#000000; stroke-width:2; stroke-opacity:0.1; fill:none" points="
  186.274,111.811 2352.76,111.811 
  "/>
<polyline clip-path="url(#clip740)" style="stroke:#000000; stroke-width:4; stroke-opacity:1; fill:none" points="
  186.274,419.781 186.274,47.2441 
  "/>
<polyline clip-path="url(#clip740)" style="stroke:#000000; stroke-width:4; stroke-opacity:1; fill:none" points="
  186.274,406.861 212.272,406.861 
  "/>
<polyline clip-path="url(#clip740)" style="stroke:#000000; stroke-width:4; stroke-opacity:1; fill:none" points="
  186.274,333.099 212.272,333.099 
  "/>
<polyline clip-path="url(#clip740)" style="stroke:#000000; stroke-width:4; stroke-opacity:1; fill:none" points="
  186.274,259.336 212.272,259.336 
  "/>
<polyline clip-path="url(#clip740)" style="stroke:#000000; stroke-width:4; stroke-opacity:1; fill:none" points="
  186.274,185.574 212.272,185.574 
  "/>
<polyline clip-path="url(#clip740)" style="stroke:#000000; stroke-width:4; stroke-opacity:1; fill:none" points="
  186.274,111.811 212.272,111.811 
  "/>
<path clip-path="url(#clip740)" d="M93.0984 392.66 Q89.4873 392.66 87.6586 396.225 Q85.8531 399.766 85.8531 406.896 Q85.8531 414.003 87.6586 417.567 Q89.4873 421.109 93.0984 421.109 Q96.7326 421.109 98.5382 417.567 Q100.367 414.003 100.367 406.896 Q100.367 399.766 98.5382 396.225 Q96.7326 392.66 93.0984 392.66 M93.0984 388.956 Q98.9085 388.956 101.964 393.563 Q105.043 398.146 105.043 406.896 Q105.043 415.623 101.964 420.229 Q98.9085 424.813 93.0984 424.813 Q87.2882 424.813 84.2095 420.229 Q81.154 415.623 81.154 406.896 Q81.154 398.146 84.2095 393.563 Q87.2882 388.956 93.0984 388.956 Z" fill="#000000" fill-rule="evenodd" fill-opacity="1" /><path clip-path="url(#clip740)" d="M113.26 418.262 L118.145 418.262 L118.145 424.141 L113.26 424.141 L113.26 418.262 Z" fill="#000000" fill-rule="evenodd" fill-opacity="1" /><path clip-path="url(#clip740)" d="M138.33 392.66 Q134.719 392.66 132.89 396.225 Q131.084 399.766 131.084 406.896 Q131.084 414.003 132.89 417.567 Q134.719 421.109 138.33 421.109 Q141.964 421.109 143.769 417.567 Q145.598 414.003 145.598 406.896 Q145.598 399.766 143.769 396.225 Q141.964 392.66 138.33 392.66 M138.33 388.956 Q144.14 388.956 147.195 393.563 Q150.274 398.146 150.274 406.896 Q150.274 415.623 147.195 420.229 Q144.14 424.813 138.33 424.813 Q132.519 424.813 129.441 420.229 Q126.385 415.623 126.385 406.896 Q126.385 398.146 129.441 393.563 Q132.519 388.956 138.33 388.956 Z" fill="#000000" fill-rule="evenodd" fill-opacity="1" /><path clip-path="url(#clip740)" d="M94.0937 318.898 Q90.4827 318.898 88.654 322.462 Q86.8484 326.004 86.8484 333.134 Q86.8484 340.24 88.654 343.805 Q90.4827 347.346 94.0937 347.346 Q97.728 347.346 99.5335 343.805 Q101.362 340.24 101.362 333.134 Q101.362 326.004 99.5335 322.462 Q97.728 318.898 94.0937 318.898 M94.0937 315.194 Q99.9039 315.194 102.959 319.8 Q106.038 324.384 106.038 333.134 Q106.038 341.86 102.959 346.467 Q99.9039 351.05 94.0937 351.05 Q88.2836 351.05 85.2049 346.467 Q82.1494 341.86 82.1494 333.134 Q82.1494 324.384 85.2049 319.8 Q88.2836 315.194 94.0937 315.194 Z" fill="#000000" fill-rule="evenodd" fill-opacity="1" /><path clip-path="url(#clip740)" d="M114.256 344.499 L119.14 344.499 L119.14 350.379 L114.256 350.379 L114.256 344.499 Z" fill="#000000" fill-rule="evenodd" fill-opacity="1" /><path clip-path="url(#clip740)" d="M129.371 315.819 L147.728 315.819 L147.728 319.754 L133.654 319.754 L133.654 328.226 Q134.672 327.879 135.691 327.717 Q136.709 327.532 137.728 327.532 Q143.515 327.532 146.894 330.703 Q150.274 333.874 150.274 339.291 Q150.274 344.87 146.802 347.971 Q143.33 351.05 137.01 351.05 Q134.834 351.05 132.566 350.68 Q130.32 350.309 127.913 349.569 L127.913 344.87 Q129.996 346.004 132.219 346.559 Q134.441 347.115 136.918 347.115 Q140.922 347.115 143.26 345.008 Q145.598 342.902 145.598 339.291 Q145.598 335.68 143.26 333.573 Q140.922 331.467 136.918 331.467 Q135.043 331.467 133.168 331.884 Q131.316 332.3 129.371 333.18 L129.371 315.819 Z" fill="#000000" fill-rule="evenodd" fill-opacity="1" /><path clip-path="url(#clip740)" d="M83.9086 272.681 L91.5475 272.681 L91.5475 246.316 L83.2373 247.982 L83.2373 243.723 L91.5012 242.056 L96.1771 242.056 L96.1771 272.681 L103.816 272.681 L103.816 276.616 L83.9086 276.616 L83.9086 272.681 Z" fill="#000000" fill-rule="evenodd" fill-opacity="1" /><path clip-path="url(#clip740)" d="M113.26 270.737 L118.145 270.737 L118.145 276.616 L113.26 276.616 L113.26 270.737 Z" fill="#000000" fill-rule="evenodd" fill-opacity="1" /><path clip-path="url(#clip740)" d="M138.33 245.135 Q134.719 245.135 132.89 248.7 Q131.084 252.241 131.084 259.371 Q131.084 266.477 132.89 270.042 Q134.719 273.584 138.33 273.584 Q141.964 273.584 143.769 270.042 Q145.598 266.477 145.598 259.371 Q145.598 252.241 143.769 248.7 Q141.964 245.135 138.33 245.135 M138.33 241.431 Q144.14 241.431 147.195 246.038 Q150.274 250.621 150.274 259.371 Q150.274 268.098 147.195 272.704 Q144.14 277.288 138.33 277.288 Q132.519 277.288 129.441 272.704 Q126.385 268.098 126.385 259.371 Q126.385 250.621 129.441 246.038 Q132.519 241.431 138.33 241.431 Z" fill="#000000" fill-rule="evenodd" fill-opacity="1" /><path clip-path="url(#clip740)" d="M84.904 198.919 L92.5428 198.919 L92.5428 172.553 L84.2327 174.22 L84.2327 169.96 L92.4965 168.294 L97.1724 168.294 L97.1724 198.919 L104.811 198.919 L104.811 202.854 L84.904 202.854 L84.904 198.919 Z" fill="#000000" fill-rule="evenodd" fill-opacity="1" /><path clip-path="url(#clip740)" d="M114.256 196.974 L119.14 196.974 L119.14 202.854 L114.256 202.854 L114.256 196.974 Z" fill="#000000" fill-rule="evenodd" fill-opacity="1" /><path clip-path="url(#clip740)" d="M129.371 168.294 L147.728 168.294 L147.728 172.229 L133.654 172.229 L133.654 180.701 Q134.672 180.354 135.691 180.192 Q136.709 180.007 137.728 180.007 Q143.515 180.007 146.894 183.178 Q150.274 186.349 150.274 191.766 Q150.274 197.345 146.802 200.446 Q143.33 203.525 137.01 203.525 Q134.834 203.525 132.566 203.155 Q130.32 202.784 127.913 202.044 L127.913 197.345 Q129.996 198.479 132.219 199.034 Q134.441 199.59 136.918 199.59 Q140.922 199.59 143.26 197.483 Q145.598 195.377 145.598 191.766 Q145.598 188.155 143.26 186.048 Q140.922 183.942 136.918 183.942 Q135.043 183.942 133.168 184.359 Q131.316 184.775 129.371 185.655 L129.371 168.294 Z" fill="#000000" fill-rule="evenodd" fill-opacity="1" /><path clip-path="url(#clip740)" d="M87.1262 125.156 L103.446 125.156 L103.446 129.091 L81.5012 129.091 L81.5012 125.156 Q84.1632 122.402 88.7466 117.772 Q93.353 113.119 94.5336 111.777 Q96.7789 109.253 97.6585 107.517 Q98.5613 105.758 98.5613 104.068 Q98.5613 101.314 96.6169 99.5776 Q94.6956 97.8415 91.5938 97.8415 Q89.3947 97.8415 86.941 98.6054 Q84.5105 99.3692 81.7327 100.92 L81.7327 96.198 Q84.5568 95.0637 87.0105 94.485 Q89.4641 93.9063 91.5012 93.9063 Q96.8715 93.9063 100.066 96.5915 Q103.26 99.2766 103.26 103.767 Q103.26 105.897 102.45 107.818 Q101.663 109.716 99.5567 112.309 Q98.978 112.98 95.8761 116.198 Q92.7743 119.392 87.1262 125.156 Z" fill="#000000" fill-rule="evenodd" fill-opacity="1" /><path clip-path="url(#clip740)" d="M113.26 123.212 L118.145 123.212 L118.145 129.091 L113.26 129.091 L113.26 123.212 Z" fill="#000000" fill-rule="evenodd" fill-opacity="1" /><path clip-path="url(#clip740)" d="M138.33 97.61 Q134.719 97.61 132.89 101.175 Q131.084 104.716 131.084 111.846 Q131.084 118.952 132.89 122.517 Q134.719 126.059 138.33 126.059 Q141.964 126.059 143.769 122.517 Q145.598 118.952 145.598 111.846 Q145.598 104.716 143.769 101.175 Q141.964 97.61 138.33 97.61 M138.33 93.9063 Q144.14 93.9063 147.195 98.5128 Q150.274 103.096 150.274 111.846 Q150.274 120.573 147.195 125.179 Q144.14 129.763 138.33 129.763 Q132.519 129.763 129.441 125.179 Q126.385 120.573 126.385 111.846 Q126.385 103.096 129.441 98.5128 Q132.519 93.9063 138.33 93.9063 Z" fill="#000000" fill-rule="evenodd" fill-opacity="1" /><polyline clip-path="url(#clip742)" style="stroke:#009af9; stroke-width:4; stroke-opacity:1; fill:none" points="
  247.59,406.42 261.307,407.397 275.024,409.238 288.741,408.624 302.458,408.894 316.175,406.917 329.892,405.559 343.609,405.314 357.326,402.558 371.044,397.232 
  384.761,391.322 398.478,384.511 412.195,377.135 425.912,368.809 439.629,359.444 453.346,350.169 467.063,340.985 480.781,326.769 494.498,311.704 508.215,298.786 
  521.932,285.666 535.649,270.251 549.366,254.677 563.083,241.786 576.8,226.765 590.518,213.022 604.235,198.166 617.952,180.892 631.669,168.431 645.386,154.142 
  659.103,142.395 672.82,130.218 686.537,119.554 700.254,107.829 713.972,97.3454 727.689,88.2859 741.406,81.7541 755.123,75.0263 768.84,69.8812 782.557,64.7126 
  796.274,62.8387 809.991,58.4321 823.709,57.7876 837.426,58.8031 851.143,58.9897 864.86,60.6513 878.577,60.7261 892.294,63.0017 906.011,66.9845 919.728,70.6874 
  933.446,75.3859 947.163,80.5845 960.88,84.35 974.597,89.3132 988.314,93.6207 1002.03,98.8539 1015.75,103.892 1029.47,108.763 1043.18,115.998 1056.9,122.165 
  1070.62,125.133 1084.33,129.318 1098.05,131.228 1111.77,134.522 1125.49,137.655 1139.2,140.096 1152.92,142.934 1166.64,143.322 1180.35,144.012 1194.07,147.083 
  1207.79,145.595 1221.51,146.362 1235.22,146.126 1248.94,146.556 1262.66,145.219 1276.37,144.514 1290.09,143.909 1303.81,143.025 1317.52,143.016 1331.24,141.064 
  1344.96,139.74 1358.68,140.909 1372.39,140.592 1386.11,139.473 1399.83,137.994 1413.54,134.569 1427.26,132.669 1440.98,130.741 1454.7,129.143 1468.41,126.315 
  1482.13,127.263 1495.85,126.469 1509.56,125.563 1523.28,126.485 1537,125.83 1550.72,125.209 1564.43,124.667 1578.15,121.899 1591.87,120.568 1605.58,119.977 
  1619.3,118.493 1633.02,115.849 1646.74,114.385 1660.45,112.011 1674.17,110.358 1687.89,109.489 1701.6,108.115 1715.32,107.027 1729.04,106.353 1742.76,103.46 
  1756.47,99.886 1770.19,96.6868 1783.91,94.9005 1797.62,95.8497 1811.34,92.6315 1825.06,92.0717 1838.78,92.2466 1852.49,91.8525 1866.21,90.9344 1879.93,89.0715 
  1893.64,85.7846 1907.36,85.2408 1921.08,85.9689 1934.8,84.8705 1948.51,81.7419 1962.23,82.336 1975.95,82.3922 1989.66,82.5717 2003.38,81.7641 2017.1,81.1225 
  2030.82,82.4253 2044.53,82.5941 2058.25,83.7056 2071.97,85.0242 2085.68,85.6648 2099.4,83.2066 2113.12,85.4862 2126.83,86.9397 2140.55,86.5426 2154.27,88.0817 
  2167.99,88.3404 2181.7,89.9054 2195.42,90.2001 2209.14,93.0129 2222.85,95.4284 2236.57,97.2591 2250.29,97.8982 2264.01,102.646 2277.72,102.513 2291.44,102.092 
  
  "/>
<path clip-path="url(#clip740)" d="
M1987.39 180.622 L2280.54 180.622 L2280.54 59.662 L1987.39 59.662  Z
  " fill="#ffffff" fill-rule="evenodd" fill-opacity="1"/>
<polyline clip-path="url(#clip740)" style="stroke:#000000; stroke-width:4; stroke-opacity:1; fill:none" points="
  1987.39,180.622 2280.54,180.622 2280.54,59.662 1987.39,59.662 1987.39,180.622 
  "/>
<polyline clip-path="url(#clip740)" style="stroke:#009af9; stroke-width:4; stroke-opacity:1; fill:none" points="
  2011.46,120.142 2155.89,120.142 
  "/>
<path clip-path="url(#clip740)" d="M2193.81 139.829 Q2192 144.459 2190.29 145.871 Q2188.58 147.283 2185.71 147.283 L2182.3 147.283 L2182.3 143.718 L2184.8 143.718 Q2186.56 143.718 2187.53 142.885 Q2188.51 142.052 2189.69 138.95 L2190.45 137.005 L2179.97 111.496 L2184.48 111.496 L2192.58 131.774 L2200.68 111.496 L2205.2 111.496 L2193.81 139.829 Z" fill="#000000" fill-rule="evenodd" fill-opacity="1" /><path clip-path="url(#clip740)" d="M2212.49 133.487 L2220.13 133.487 L2220.13 107.121 L2211.82 108.788 L2211.82 104.529 L2220.08 102.862 L2224.76 102.862 L2224.76 133.487 L2232.4 133.487 L2232.4 137.422 L2212.49 137.422 L2212.49 133.487 Z" fill="#000000" fill-rule="evenodd" fill-opacity="1" /><path clip-path="url(#clip740)" d="
M186.274 953.115 L2352.76 953.115 L2352.76 580.577 L186.274 580.577  Z
  " fill="#ffffff" fill-rule="evenodd" fill-opacity="1"/>
<defs>
  <clipPath id="clip743">
    <rect x="186" y="580" width="2167" height="374"/>
  </clipPath>
</defs>
<polyline clip-path="url(#clip743)" style="stroke:#000000; stroke-width:2; stroke-opacity:0.1; fill:none" points="
  233.872,953.115 233.872,580.577 
  "/>
<polyline clip-path="url(#clip743)" style="stroke:#000000; stroke-width:2; stroke-opacity:0.1; fill:none" points="
  919.728,953.115 919.728,580.577 
  "/>
<polyline clip-path="url(#clip743)" style="stroke:#000000; stroke-width:2; stroke-opacity:0.1; fill:none" points="
  1605.58,953.115 1605.58,580.577 
  "/>
<polyline clip-path="url(#clip743)" style="stroke:#000000; stroke-width:2; stroke-opacity:0.1; fill:none" points="
  2291.44,953.115 2291.44,580.577 
  "/>
<polyline clip-path="url(#clip740)" style="stroke:#000000; stroke-width:4; stroke-opacity:1; fill:none" points="
  186.274,953.115 2352.76,953.115 
  "/>
<polyline clip-path="url(#clip740)" style="stroke:#000000; stroke-width:4; stroke-opacity:1; fill:none" points="
  233.872,953.115 233.872,948.644 
  "/>
<polyline clip-path="url(#clip740)" style="stroke:#000000; stroke-width:4; stroke-opacity:1; fill:none" points="
  919.728,953.115 919.728,948.644 
  "/>
<polyline clip-path="url(#clip740)" style="stroke:#000000; stroke-width:4; stroke-opacity:1; fill:none" points="
  1605.58,953.115 1605.58,948.644 
  "/>
<polyline clip-path="url(#clip740)" style="stroke:#000000; stroke-width:4; stroke-opacity:1; fill:none" points="
  2291.44,953.115 2291.44,948.644 
  "/>
<path clip-path="url(#clip740)" d="M233.872 982.305 Q230.261 982.305 228.433 985.87 Q226.627 989.412 226.627 996.541 Q226.627 1003.65 228.433 1007.21 Q230.261 1010.75 233.872 1010.75 Q237.507 1010.75 239.312 1007.21 Q241.141 1003.65 241.141 996.541 Q241.141 989.412 239.312 985.87 Q237.507 982.305 233.872 982.305 M233.872 978.602 Q239.683 978.602 242.738 983.208 Q245.817 987.791 245.817 996.541 Q245.817 1005.27 242.738 1009.87 Q239.683 1014.46 233.872 1014.46 Q228.062 1014.46 224.984 1009.87 Q221.928 1005.27 221.928 996.541 Q221.928 987.791 224.984 983.208 Q228.062 978.602 233.872 978.602 Z" fill="#000000" fill-rule="evenodd" fill-opacity="1" /><path clip-path="url(#clip740)" d="M894.428 979.227 L912.784 979.227 L912.784 983.162 L898.71 983.162 L898.71 991.634 Q899.729 991.287 900.747 991.125 Q901.766 990.939 902.784 990.939 Q908.571 990.939 911.951 994.111 Q915.33 997.282 915.33 1002.7 Q915.33 1008.28 911.858 1011.38 Q908.386 1014.46 902.066 1014.46 Q899.891 1014.46 897.622 1014.09 Q895.377 1013.72 892.969 1012.98 L892.969 1008.28 Q895.053 1009.41 897.275 1009.97 Q899.497 1010.52 901.974 1010.52 Q905.978 1010.52 908.316 1008.42 Q910.654 1006.31 910.654 1002.7 Q910.654 999.088 908.316 996.981 Q905.978 994.875 901.974 994.875 Q900.099 994.875 898.224 995.291 Q896.372 995.708 894.428 996.588 L894.428 979.227 Z" fill="#000000" fill-rule="evenodd" fill-opacity="1" /><path clip-path="url(#clip740)" d="M934.543 982.305 Q930.932 982.305 929.103 985.87 Q927.298 989.412 927.298 996.541 Q927.298 1003.65 929.103 1007.21 Q930.932 1010.75 934.543 1010.75 Q938.177 1010.75 939.983 1007.21 Q941.812 1003.65 941.812 996.541 Q941.812 989.412 939.983 985.87 Q938.177 982.305 934.543 982.305 M934.543 978.602 Q940.353 978.602 943.409 983.208 Q946.488 987.791 946.488 996.541 Q946.488 1005.27 943.409 1009.87 Q940.353 1014.46 934.543 1014.46 Q928.733 1014.46 925.654 1009.87 Q922.599 1005.27 922.599 996.541 Q922.599 987.791 925.654 983.208 Q928.733 978.602 934.543 978.602 Z" fill="#000000" fill-rule="evenodd" fill-opacity="1" /><path clip-path="url(#clip740)" d="M1565.19 1009.85 L1572.83 1009.85 L1572.83 983.486 L1564.52 985.152 L1564.52 980.893 L1572.78 979.227 L1577.46 979.227 L1577.46 1009.85 L1585.1 1009.85 L1585.1 1013.79 L1565.19 1013.79 L1565.19 1009.85 Z" fill="#000000" fill-rule="evenodd" fill-opacity="1" /><path clip-path="url(#clip740)" d="M1604.54 982.305 Q1600.93 982.305 1599.1 985.87 Q1597.3 989.412 1597.3 996.541 Q1597.3 1003.65 1599.1 1007.21 Q1600.93 1010.75 1604.54 1010.75 Q1608.18 1010.75 1609.98 1007.21 Q1611.81 1003.65 1611.81 996.541 Q1611.81 989.412 1609.98 985.87 Q1608.18 982.305 1604.54 982.305 M1604.54 978.602 Q1610.35 978.602 1613.41 983.208 Q1616.49 987.791 1616.49 996.541 Q1616.49 1005.27 1613.41 1009.87 Q1610.35 1014.46 1604.54 1014.46 Q1598.73 1014.46 1595.65 1009.87 Q1592.6 1005.27 1592.6 996.541 Q1592.6 987.791 1595.65 983.208 Q1598.73 978.602 1604.54 978.602 Z" fill="#000000" fill-rule="evenodd" fill-opacity="1" /><path clip-path="url(#clip740)" d="M1634.7 982.305 Q1631.09 982.305 1629.26 985.87 Q1627.46 989.412 1627.46 996.541 Q1627.46 1003.65 1629.26 1007.21 Q1631.09 1010.75 1634.7 1010.75 Q1638.34 1010.75 1640.14 1007.21 Q1641.97 1003.65 1641.97 996.541 Q1641.97 989.412 1640.14 985.87 Q1638.34 982.305 1634.7 982.305 M1634.7 978.602 Q1640.51 978.602 1643.57 983.208 Q1646.65 987.791 1646.65 996.541 Q1646.65 1005.27 1643.57 1009.87 Q1640.51 1014.46 1634.7 1014.46 Q1628.89 1014.46 1625.82 1009.87 Q1622.76 1005.27 1622.76 996.541 Q1622.76 987.791 1625.82 983.208 Q1628.89 978.602 1634.7 978.602 Z" fill="#000000" fill-rule="evenodd" fill-opacity="1" /><path clip-path="url(#clip740)" d="M2251.05 1009.85 L2258.69 1009.85 L2258.69 983.486 L2250.38 985.152 L2250.38 980.893 L2258.64 979.227 L2263.32 979.227 L2263.32 1009.85 L2270.95 1009.85 L2270.95 1013.79 L2251.05 1013.79 L2251.05 1009.85 Z" fill="#000000" fill-rule="evenodd" fill-opacity="1" /><path clip-path="url(#clip740)" d="M2280.45 979.227 L2298.8 979.227 L2298.8 983.162 L2284.73 983.162 L2284.73 991.634 Q2285.75 991.287 2286.76 991.125 Q2287.78 990.939 2288.8 990.939 Q2294.59 990.939 2297.97 994.111 Q2301.35 997.282 2301.35 1002.7 Q2301.35 1008.28 2297.88 1011.38 Q2294.4 1014.46 2288.08 1014.46 Q2285.91 1014.46 2283.64 1014.09 Q2281.39 1013.72 2278.99 1012.98 L2278.99 1008.28 Q2281.07 1009.41 2283.29 1009.97 Q2285.51 1010.52 2287.99 1010.52 Q2292 1010.52 2294.33 1008.42 Q2296.67 1006.31 2296.67 1002.7 Q2296.67 999.088 2294.33 996.981 Q2292 994.875 2287.99 994.875 Q2286.12 994.875 2284.24 995.291 Q2282.39 995.708 2280.45 996.588 L2280.45 979.227 Z" fill="#000000" fill-rule="evenodd" fill-opacity="1" /><path clip-path="url(#clip740)" d="M2320.56 982.305 Q2316.95 982.305 2315.12 985.87 Q2313.32 989.412 2313.32 996.541 Q2313.32 1003.65 2315.12 1007.21 Q2316.95 1010.75 2320.56 1010.75 Q2324.19 1010.75 2326 1007.21 Q2327.83 1003.65 2327.83 996.541 Q2327.83 989.412 2326 985.87 Q2324.19 982.305 2320.56 982.305 M2320.56 978.602 Q2326.37 978.602 2329.43 983.208 Q2332.5 987.791 2332.5 996.541 Q2332.5 1005.27 2329.43 1009.87 Q2326.37 1014.46 2320.56 1014.46 Q2314.75 1014.46 2311.67 1009.87 Q2308.62 1005.27 2308.62 996.541 Q2308.62 987.791 2311.67 983.208 Q2314.75 978.602 2320.56 978.602 Z" fill="#000000" fill-rule="evenodd" fill-opacity="1" /><polyline clip-path="url(#clip743)" style="stroke:#000000; stroke-width:2; stroke-opacity:0.1; fill:none" points="
  186.274,946.516 2352.76,946.516 
  "/>
<polyline clip-path="url(#clip743)" style="stroke:#000000; stroke-width:2; stroke-opacity:0.1; fill:none" points="
  186.274,869.722 2352.76,869.722 
  "/>
<polyline clip-path="url(#clip743)" style="stroke:#000000; stroke-width:2; stroke-opacity:0.1; fill:none" points="
  186.274,792.928 2352.76,792.928 
  "/>
<polyline clip-path="url(#clip743)" style="stroke:#000000; stroke-width:2; stroke-opacity:0.1; fill:none" points="
  186.274,716.135 2352.76,716.135 
  "/>
<polyline clip-path="url(#clip743)" style="stroke:#000000; stroke-width:2; stroke-opacity:0.1; fill:none" points="
  186.274,639.341 2352.76,639.341 
  "/>
<polyline clip-path="url(#clip740)" style="stroke:#000000; stroke-width:4; stroke-opacity:1; fill:none" points="
  186.274,953.115 186.274,580.577 
  "/>
<polyline clip-path="url(#clip740)" style="stroke:#000000; stroke-width:4; stroke-opacity:1; fill:none" points="
  186.274,946.516 212.272,946.516 
  "/>
<polyline clip-path="url(#clip740)" style="stroke:#000000; stroke-width:4; stroke-opacity:1; fill:none" points="
  186.274,869.722 212.272,869.722 
  "/>
<polyline clip-path="url(#clip740)" style="stroke:#000000; stroke-width:4; stroke-opacity:1; fill:none" points="
  186.274,792.928 212.272,792.928 
  "/>
<polyline clip-path="url(#clip740)" style="stroke:#000000; stroke-width:4; stroke-opacity:1; fill:none" points="
  186.274,716.135 212.272,716.135 
  "/>
<polyline clip-path="url(#clip740)" style="stroke:#000000; stroke-width:4; stroke-opacity:1; fill:none" points="
  186.274,639.341 212.272,639.341 
  "/>
<path clip-path="url(#clip740)" d="M62.9365 932.314 Q59.3254 932.314 57.4967 935.879 Q55.6912 939.421 55.6912 946.55 Q55.6912 953.657 57.4967 957.222 Q59.3254 960.763 62.9365 960.763 Q66.5707 960.763 68.3763 957.222 Q70.205 953.657 70.205 946.55 Q70.205 939.421 68.3763 935.879 Q66.5707 932.314 62.9365 932.314 M62.9365 928.611 Q68.7467 928.611 71.8022 933.217 Q74.8809 937.8 74.8809 946.55 Q74.8809 955.277 71.8022 959.884 Q68.7467 964.467 62.9365 964.467 Q57.1264 964.467 54.0477 959.884 Q50.9921 955.277 50.9921 946.55 Q50.9921 937.8 54.0477 933.217 Q57.1264 928.611 62.9365 928.611 Z" fill="#000000" fill-rule="evenodd" fill-opacity="1" /><path clip-path="url(#clip740)" d="M83.0984 957.916 L87.9827 957.916 L87.9827 963.796 L83.0984 963.796 L83.0984 957.916 Z" fill="#000000" fill-rule="evenodd" fill-opacity="1" /><path clip-path="url(#clip740)" d="M108.168 932.314 Q104.557 932.314 102.728 935.879 Q100.922 939.421 100.922 946.55 Q100.922 953.657 102.728 957.222 Q104.557 960.763 108.168 960.763 Q111.802 960.763 113.608 957.222 Q115.436 953.657 115.436 946.55 Q115.436 939.421 113.608 935.879 Q111.802 932.314 108.168 932.314 M108.168 928.611 Q113.978 928.611 117.033 933.217 Q120.112 937.8 120.112 946.55 Q120.112 955.277 117.033 959.884 Q113.978 964.467 108.168 964.467 Q102.358 964.467 99.2789 959.884 Q96.2234 955.277 96.2234 946.55 Q96.2234 937.8 99.2789 933.217 Q102.358 928.611 108.168 928.611 Z" fill="#000000" fill-rule="evenodd" fill-opacity="1" /><path clip-path="url(#clip740)" d="M138.33 932.314 Q134.719 932.314 132.89 935.879 Q131.084 939.421 131.084 946.55 Q131.084 953.657 132.89 957.222 Q134.719 960.763 138.33 960.763 Q141.964 960.763 143.769 957.222 Q145.598 953.657 145.598 946.55 Q145.598 939.421 143.769 935.879 Q141.964 932.314 138.33 932.314 M138.33 928.611 Q144.14 928.611 147.195 933.217 Q150.274 937.8 150.274 946.55 Q150.274 955.277 147.195 959.884 Q144.14 964.467 138.33 964.467 Q132.519 964.467 129.441 959.884 Q126.385 955.277 126.385 946.55 Q126.385 937.8 129.441 933.217 Q132.519 928.611 138.33 928.611 Z" fill="#000000" fill-rule="evenodd" fill-opacity="1" /><path clip-path="url(#clip740)" d="M63.9319 855.521 Q60.3208 855.521 58.4921 859.086 Q56.6865 862.627 56.6865 869.757 Q56.6865 876.863 58.4921 880.428 Q60.3208 883.97 63.9319 883.97 Q67.5661 883.97 69.3717 880.428 Q71.2004 876.863 71.2004 869.757 Q71.2004 862.627 69.3717 859.086 Q67.5661 855.521 63.9319 855.521 M63.9319 851.817 Q69.742 851.817 72.7976 856.424 Q75.8763 861.007 75.8763 869.757 Q75.8763 878.484 72.7976 883.09 Q69.742 887.673 63.9319 887.673 Q58.1217 887.673 55.043 883.09 Q51.9875 878.484 51.9875 869.757 Q51.9875 861.007 55.043 856.424 Q58.1217 851.817 63.9319 851.817 Z" fill="#000000" fill-rule="evenodd" fill-opacity="1" /><path clip-path="url(#clip740)" d="M84.0938 881.123 L88.978 881.123 L88.978 887.002 L84.0938 887.002 L84.0938 881.123 Z" fill="#000000" fill-rule="evenodd" fill-opacity="1" /><path clip-path="url(#clip740)" d="M103.191 883.067 L119.51 883.067 L119.51 887.002 L97.566 887.002 L97.566 883.067 Q100.228 880.312 104.811 875.683 Q109.418 871.03 110.598 869.687 Q112.844 867.164 113.723 865.428 Q114.626 863.669 114.626 861.979 Q114.626 859.224 112.682 857.488 Q110.76 855.752 107.658 855.752 Q105.459 855.752 103.006 856.516 Q100.575 857.28 97.7974 858.831 L97.7974 854.109 Q100.621 852.975 103.075 852.396 Q105.529 851.817 107.566 851.817 Q112.936 851.817 116.131 854.502 Q119.325 857.187 119.325 861.678 Q119.325 863.808 118.515 865.729 Q117.728 867.627 115.621 870.22 Q115.043 870.891 111.941 874.109 Q108.839 877.303 103.191 883.067 Z" fill="#000000" fill-rule="evenodd" fill-opacity="1" /><path clip-path="url(#clip740)" d="M129.371 852.442 L147.728 852.442 L147.728 856.377 L133.654 856.377 L133.654 864.849 Q134.672 864.502 135.691 864.34 Q136.709 864.155 137.728 864.155 Q143.515 864.155 146.894 867.326 Q150.274 870.498 150.274 875.914 Q150.274 881.493 146.802 884.595 Q143.33 887.673 137.01 887.673 Q134.834 887.673 132.566 887.303 Q130.32 886.933 127.913 886.192 L127.913 881.493 Q129.996 882.627 132.219 883.183 Q134.441 883.738 136.918 883.738 Q140.922 883.738 143.26 881.632 Q145.598 879.525 145.598 875.914 Q145.598 872.303 143.26 870.197 Q140.922 868.09 136.918 868.09 Q135.043 868.09 133.168 868.507 Q131.316 868.923 129.371 869.803 L129.371 852.442 Z" fill="#000000" fill-rule="evenodd" fill-opacity="1" /><path clip-path="url(#clip740)" d="M62.9365 778.727 Q59.3254 778.727 57.4967 782.292 Q55.6912 785.834 55.6912 792.963 Q55.6912 800.07 57.4967 803.634 Q59.3254 807.176 62.9365 807.176 Q66.5707 807.176 68.3763 803.634 Q70.205 800.07 70.205 792.963 Q70.205 785.834 68.3763 782.292 Q66.5707 778.727 62.9365 778.727 M62.9365 775.023 Q68.7467 775.023 71.8022 779.63 Q74.8809 784.213 74.8809 792.963 Q74.8809 801.69 71.8022 806.296 Q68.7467 810.88 62.9365 810.88 Q57.1264 810.88 54.0477 806.296 Q50.9921 801.69 50.9921 792.963 Q50.9921 784.213 54.0477 779.63 Q57.1264 775.023 62.9365 775.023 Z" fill="#000000" fill-rule="evenodd" fill-opacity="1" /><path clip-path="url(#clip740)" d="M83.0984 804.329 L87.9827 804.329 L87.9827 810.208 L83.0984 810.208 L83.0984 804.329 Z" fill="#000000" fill-rule="evenodd" fill-opacity="1" /><path clip-path="url(#clip740)" d="M98.2141 775.648 L116.57 775.648 L116.57 779.584 L102.496 779.584 L102.496 788.056 Q103.515 787.709 104.534 787.547 Q105.552 787.361 106.571 787.361 Q112.358 787.361 115.737 790.533 Q119.117 793.704 119.117 799.121 Q119.117 804.699 115.645 807.801 Q112.172 810.88 105.853 810.88 Q103.677 810.88 101.409 810.509 Q99.1632 810.139 96.7558 809.398 L96.7558 804.699 Q98.8391 805.834 101.061 806.389 Q103.284 806.945 105.76 806.945 Q109.765 806.945 112.103 804.838 Q114.441 802.732 114.441 799.121 Q114.441 795.509 112.103 793.403 Q109.765 791.297 105.76 791.297 Q103.885 791.297 102.01 791.713 Q100.159 792.13 98.2141 793.01 L98.2141 775.648 Z" fill="#000000" fill-rule="evenodd" fill-opacity="1" /><path clip-path="url(#clip740)" d="M138.33 778.727 Q134.719 778.727 132.89 782.292 Q131.084 785.834 131.084 792.963 Q131.084 800.07 132.89 803.634 Q134.719 807.176 138.33 807.176 Q141.964 807.176 143.769 803.634 Q145.598 800.07 145.598 792.963 Q145.598 785.834 143.769 782.292 Q141.964 778.727 138.33 778.727 M138.33 775.023 Q144.14 775.023 147.195 779.63 Q150.274 784.213 150.274 792.963 Q150.274 801.69 147.195 806.296 Q144.14 810.88 138.33 810.88 Q132.519 810.88 129.441 806.296 Q126.385 801.69 126.385 792.963 Q126.385 784.213 129.441 779.63 Q132.519 775.023 138.33 775.023 Z" fill="#000000" fill-rule="evenodd" fill-opacity="1" /><path clip-path="url(#clip740)" d="M63.9319 701.934 Q60.3208 701.934 58.4921 705.498 Q56.6865 709.04 56.6865 716.17 Q56.6865 723.276 58.4921 726.841 Q60.3208 730.382 63.9319 730.382 Q67.5661 730.382 69.3717 726.841 Q71.2004 723.276 71.2004 716.17 Q71.2004 709.04 69.3717 705.498 Q67.5661 701.934 63.9319 701.934 M63.9319 698.23 Q69.742 698.23 72.7976 702.836 Q75.8763 707.42 75.8763 716.17 Q75.8763 724.896 72.7976 729.503 Q69.742 734.086 63.9319 734.086 Q58.1217 734.086 55.043 729.503 Q51.9875 724.896 51.9875 716.17 Q51.9875 707.42 55.043 702.836 Q58.1217 698.23 63.9319 698.23 Z" fill="#000000" fill-rule="evenodd" fill-opacity="1" /><path clip-path="url(#clip740)" d="M84.0938 727.535 L88.978 727.535 L88.978 733.415 L84.0938 733.415 L84.0938 727.535 Z" fill="#000000" fill-rule="evenodd" fill-opacity="1" /><path clip-path="url(#clip740)" d="M97.9826 698.855 L120.205 698.855 L120.205 700.846 L107.658 733.415 L102.774 733.415 L114.58 702.79 L97.9826 702.79 L97.9826 698.855 Z" fill="#000000" fill-rule="evenodd" fill-opacity="1" /><path clip-path="url(#clip740)" d="M129.371 698.855 L147.728 698.855 L147.728 702.79 L133.654 702.79 L133.654 711.262 Q134.672 710.915 135.691 710.753 Q136.709 710.568 137.728 710.568 Q143.515 710.568 146.894 713.739 Q150.274 716.91 150.274 722.327 Q150.274 727.906 146.802 731.007 Q143.33 734.086 137.01 734.086 Q134.834 734.086 132.566 733.716 Q130.32 733.345 127.913 732.605 L127.913 727.906 Q129.996 729.04 132.219 729.595 Q134.441 730.151 136.918 730.151 Q140.922 730.151 143.26 728.045 Q145.598 725.938 145.598 722.327 Q145.598 718.716 143.26 716.609 Q140.922 714.503 136.918 714.503 Q135.043 714.503 133.168 714.92 Q131.316 715.336 129.371 716.216 L129.371 698.855 Z" fill="#000000" fill-rule="evenodd" fill-opacity="1" /><path clip-path="url(#clip740)" d="M53.7467 652.686 L61.3856 652.686 L61.3856 626.32 L53.0754 627.987 L53.0754 623.728 L61.3393 622.061 L66.0152 622.061 L66.0152 652.686 L73.654 652.686 L73.654 656.621 L53.7467 656.621 L53.7467 652.686 Z" fill="#000000" fill-rule="evenodd" fill-opacity="1" /><path clip-path="url(#clip740)" d="M83.0984 650.742 L87.9827 650.742 L87.9827 656.621 L83.0984 656.621 L83.0984 650.742 Z" fill="#000000" fill-rule="evenodd" fill-opacity="1" /><path clip-path="url(#clip740)" d="M108.168 625.14 Q104.557 625.14 102.728 628.705 Q100.922 632.246 100.922 639.376 Q100.922 646.482 102.728 650.047 Q104.557 653.589 108.168 653.589 Q111.802 653.589 113.608 650.047 Q115.436 646.482 115.436 639.376 Q115.436 632.246 113.608 628.705 Q111.802 625.14 108.168 625.14 M108.168 621.436 Q113.978 621.436 117.033 626.043 Q120.112 630.626 120.112 639.376 Q120.112 648.103 117.033 652.709 Q113.978 657.293 108.168 657.293 Q102.358 657.293 99.2789 652.709 Q96.2234 648.103 96.2234 639.376 Q96.2234 630.626 99.2789 626.043 Q102.358 621.436 108.168 621.436 Z" fill="#000000" fill-rule="evenodd" fill-opacity="1" /><path clip-path="url(#clip740)" d="M138.33 625.14 Q134.719 625.14 132.89 628.705 Q131.084 632.246 131.084 639.376 Q131.084 646.482 132.89 650.047 Q134.719 653.589 138.33 653.589 Q141.964 653.589 143.769 650.047 Q145.598 646.482 145.598 639.376 Q145.598 632.246 143.769 628.705 Q141.964 625.14 138.33 625.14 M138.33 621.436 Q144.14 621.436 147.195 626.043 Q150.274 630.626 150.274 639.376 Q150.274 648.103 147.195 652.709 Q144.14 657.293 138.33 657.293 Q132.519 657.293 129.441 652.709 Q126.385 648.103 126.385 639.376 Q126.385 630.626 129.441 626.043 Q132.519 621.436 138.33 621.436 Z" fill="#000000" fill-rule="evenodd" fill-opacity="1" /><polyline clip-path="url(#clip743)" style="stroke:#009af9; stroke-width:4; stroke-opacity:1; fill:none" points="
  247.59,942.571 261.307,938.812 275.024,937.844 288.741,935.896 302.458,931.584 316.175,929.407 329.892,927.748 343.609,925.166 357.326,916.71 371.044,908.497 
  384.761,902.068 398.478,899.934 412.195,895.5 425.912,890.408 439.629,882.926 453.346,874.054 467.063,864.127 480.781,847.562 494.498,836.973 508.215,827.244 
  521.932,810.655 535.649,795.96 549.366,781.607 563.083,766.579 576.8,753.561 590.518,745.201 604.235,729.544 617.952,712.968 631.669,700.861 645.386,687.592 
  659.103,675.154 672.82,665.362 686.537,651.861 700.254,644.362 713.972,634.549 727.689,625.224 741.406,615.148 755.123,608.297 768.84,600.033 782.557,593.961 
  796.274,592.644 809.991,591.121 823.709,594.189 837.426,594.752 851.143,594.556 864.86,595.062 878.577,596.596 892.294,595.731 906.011,596.292 919.728,599.527 
  933.446,600.706 947.163,607.051 960.88,609.016 974.597,613.835 988.314,615.237 1002.03,616.846 1015.75,613.661 1029.47,618.364 1043.18,620.946 1056.9,626.402 
  1070.62,629.126 1084.33,632.785 1098.05,638.379 1111.77,642.184 1125.49,642.838 1139.2,645.666 1152.92,640.258 1166.64,642.77 1180.35,644.683 1194.07,642.911 
  1207.79,642.063 1221.51,646.755 1235.22,652.284 1248.94,654.903 1262.66,653.949 1276.37,652.992 1290.09,647.446 1303.81,648.036 1317.52,652.095 1331.24,655.088 
  1344.96,656.34 1358.68,658.974 1372.39,654.362 1386.11,654.015 1399.83,655.946 1413.54,651.174 1427.26,649.08 1440.98,647.1 1454.7,644.679 1468.41,644.483 
  1482.13,643.767 1495.85,644.375 1509.56,641.409 1523.28,639.713 1537,639.193 1550.72,639.424 1564.43,641.997 1578.15,643.676 1591.87,639.915 1605.58,635.219 
  1619.3,634.922 1633.02,629.652 1646.74,632.727 1660.45,626.201 1674.17,621.762 1687.89,623.344 1701.6,616.712 1715.32,616.829 1729.04,618.347 1742.76,617.114 
  1756.47,620.106 1770.19,620.382 1783.91,617.611 1797.62,617.844 1811.34,616.419 1825.06,610.713 1838.78,610.574 1852.49,613.9 1866.21,613.29 1879.93,609.967 
  1893.64,612.912 1907.36,612.503 1921.08,619.571 1934.8,624.695 1948.51,625.083 1962.23,627.548 1975.95,631.096 1989.66,635.436 2003.38,639.293 2017.1,642.675 
  2030.82,643.982 2044.53,644.487 2058.25,643.304 2071.97,649.715 2085.68,651.897 2099.4,651.408 2113.12,653.842 2126.83,656.278 2140.55,663.869 2154.27,664.139 
  2167.99,662.355 2181.7,659.853 2195.42,658.438 2209.14,659.294 2222.85,663.054 2236.57,663.369 2250.29,662.566 2264.01,662.204 2277.72,661.352 2291.44,659.439 
  
  "/>
<path clip-path="url(#clip740)" d="
M1987.76 713.955 L2280.54 713.955 L2280.54 592.995 L1987.76 592.995  Z
  " fill="#ffffff" fill-rule="evenodd" fill-opacity="1"/>
<polyline clip-path="url(#clip740)" style="stroke:#000000; stroke-width:4; stroke-opacity:1; fill:none" points="
  1987.76,713.955 2280.54,713.955 2280.54,592.995 1987.76,592.995 1987.76,713.955 
  "/>
<polyline clip-path="url(#clip740)" style="stroke:#009af9; stroke-width:4; stroke-opacity:1; fill:none" points="
  2011.83,653.475 2156.26,653.475 
  "/>
<path clip-path="url(#clip740)" d="M2194.18 673.163 Q2192.37 677.792 2190.66 679.204 Q2188.95 680.616 2186.08 680.616 L2182.67 680.616 L2182.67 677.052 L2185.17 677.052 Q2186.93 677.052 2187.91 676.218 Q2188.88 675.385 2190.06 672.283 L2190.82 670.339 L2180.34 644.83 L2184.85 644.83 L2192.95 665.107 L2201.05 644.83 L2205.57 644.83 L2194.18 673.163 Z" fill="#000000" fill-rule="evenodd" fill-opacity="1" /><path clip-path="url(#clip740)" d="M2216.08 666.82 L2232.4 666.82 L2232.4 670.755 L2210.45 670.755 L2210.45 666.82 Q2213.11 664.066 2217.7 659.436 Q2222.3 654.783 2223.48 653.441 Q2225.73 650.917 2226.61 649.181 Q2227.51 647.422 2227.51 645.732 Q2227.51 642.978 2225.57 641.242 Q2223.65 639.505 2220.54 639.505 Q2218.34 639.505 2215.89 640.269 Q2213.46 641.033 2210.68 642.584 L2210.68 637.862 Q2213.51 636.728 2215.96 636.149 Q2218.41 635.57 2220.45 635.57 Q2225.82 635.57 2229.02 638.256 Q2232.21 640.941 2232.21 645.431 Q2232.21 647.561 2231.4 649.482 Q2230.61 651.38 2228.51 653.973 Q2227.93 654.644 2224.83 657.862 Q2221.72 661.056 2216.08 666.82 Z" fill="#000000" fill-rule="evenodd" fill-opacity="1" /><path clip-path="url(#clip740)" d="
M186.274 1486.45 L2352.76 1486.45 L2352.76 1113.91 L186.274 1113.91  Z
  " fill="#ffffff" fill-rule="evenodd" fill-opacity="1"/>
<defs>
  <clipPath id="clip744">
    <rect x="186" y="1113" width="2167" height="374"/>
  </clipPath>
</defs>
<polyline clip-path="url(#clip744)" style="stroke:#000000; stroke-width:2; stroke-opacity:0.1; fill:none" points="
  233.872,1486.45 233.872,1113.91 
  "/>
<polyline clip-path="url(#clip744)" style="stroke:#000000; stroke-width:2; stroke-opacity:0.1; fill:none" points="
  919.728,1486.45 919.728,1113.91 
  "/>
<polyline clip-path="url(#clip744)" style="stroke:#000000; stroke-width:2; stroke-opacity:0.1; fill:none" points="
  1605.58,1486.45 1605.58,1113.91 
  "/>
<polyline clip-path="url(#clip744)" style="stroke:#000000; stroke-width:2; stroke-opacity:0.1; fill:none" points="
  2291.44,1486.45 2291.44,1113.91 
  "/>
<polyline clip-path="url(#clip740)" style="stroke:#000000; stroke-width:4; stroke-opacity:1; fill:none" points="
  186.274,1486.45 2352.76,1486.45 
  "/>
<polyline clip-path="url(#clip740)" style="stroke:#000000; stroke-width:4; stroke-opacity:1; fill:none" points="
  233.872,1486.45 233.872,1481.98 
  "/>
<polyline clip-path="url(#clip740)" style="stroke:#000000; stroke-width:4; stroke-opacity:1; fill:none" points="
  919.728,1486.45 919.728,1481.98 
  "/>
<polyline clip-path="url(#clip740)" style="stroke:#000000; stroke-width:4; stroke-opacity:1; fill:none" points="
  1605.58,1486.45 1605.58,1481.98 
  "/>
<polyline clip-path="url(#clip740)" style="stroke:#000000; stroke-width:4; stroke-opacity:1; fill:none" points="
  2291.44,1486.45 2291.44,1481.98 
  "/>
<path clip-path="url(#clip740)" d="M233.872 1515.64 Q230.261 1515.64 228.433 1519.2 Q226.627 1522.75 226.627 1529.87 Q226.627 1536.98 228.433 1540.55 Q230.261 1544.09 233.872 1544.09 Q237.507 1544.09 239.312 1540.55 Q241.141 1536.98 241.141 1529.87 Q241.141 1522.75 239.312 1519.2 Q237.507 1515.64 233.872 1515.64 M233.872 1511.93 Q239.683 1511.93 242.738 1516.54 Q245.817 1521.12 245.817 1529.87 Q245.817 1538.6 242.738 1543.21 Q239.683 1547.79 233.872 1547.79 Q228.062 1547.79 224.984 1543.21 Q221.928 1538.6 221.928 1529.87 Q221.928 1521.12 224.984 1516.54 Q228.062 1511.93 233.872 1511.93 Z" fill="#000000" fill-rule="evenodd" fill-opacity="1" /><path clip-path="url(#clip740)" d="M894.428 1512.56 L912.784 1512.56 L912.784 1516.5 L898.71 1516.5 L898.71 1524.97 Q899.729 1524.62 900.747 1524.46 Q901.766 1524.27 902.784 1524.27 Q908.571 1524.27 911.951 1527.44 Q915.33 1530.62 915.33 1536.03 Q915.33 1541.61 911.858 1544.71 Q908.386 1547.79 902.066 1547.79 Q899.891 1547.79 897.622 1547.42 Q895.377 1547.05 892.969 1546.31 L892.969 1541.61 Q895.053 1542.74 897.275 1543.3 Q899.497 1543.86 901.974 1543.86 Q905.978 1543.86 908.316 1541.75 Q910.654 1539.64 910.654 1536.03 Q910.654 1532.42 908.316 1530.31 Q905.978 1528.21 901.974 1528.21 Q900.099 1528.21 898.224 1528.62 Q896.372 1529.04 894.428 1529.92 L894.428 1512.56 Z" fill="#000000" fill-rule="evenodd" fill-opacity="1" /><path clip-path="url(#clip740)" d="M934.543 1515.64 Q930.932 1515.64 929.103 1519.2 Q927.298 1522.75 927.298 1529.87 Q927.298 1536.98 929.103 1540.55 Q930.932 1544.09 934.543 1544.09 Q938.177 1544.09 939.983 1540.55 Q941.812 1536.98 941.812 1529.87 Q941.812 1522.75 939.983 1519.2 Q938.177 1515.64 934.543 1515.64 M934.543 1511.93 Q940.353 1511.93 943.409 1516.54 Q946.488 1521.12 946.488 1529.87 Q946.488 1538.6 943.409 1543.21 Q940.353 1547.79 934.543 1547.79 Q928.733 1547.79 925.654 1543.21 Q922.599 1538.6 922.599 1529.87 Q922.599 1521.12 925.654 1516.54 Q928.733 1511.93 934.543 1511.93 Z" fill="#000000" fill-rule="evenodd" fill-opacity="1" /><path clip-path="url(#clip740)" d="M1565.19 1543.18 L1572.83 1543.18 L1572.83 1516.82 L1564.52 1518.49 L1564.52 1514.23 L1572.78 1512.56 L1577.46 1512.56 L1577.46 1543.18 L1585.1 1543.18 L1585.1 1547.12 L1565.19 1547.12 L1565.19 1543.18 Z" fill="#000000" fill-rule="evenodd" fill-opacity="1" /><path clip-path="url(#clip740)" d="M1604.54 1515.64 Q1600.93 1515.64 1599.1 1519.2 Q1597.3 1522.75 1597.3 1529.87 Q1597.3 1536.98 1599.1 1540.55 Q1600.93 1544.09 1604.54 1544.09 Q1608.18 1544.09 1609.98 1540.55 Q1611.81 1536.98 1611.81 1529.87 Q1611.81 1522.75 1609.98 1519.2 Q1608.18 1515.64 1604.54 1515.64 M1604.54 1511.93 Q1610.35 1511.93 1613.41 1516.54 Q1616.49 1521.12 1616.49 1529.87 Q1616.49 1538.6 1613.41 1543.21 Q1610.35 1547.79 1604.54 1547.79 Q1598.73 1547.79 1595.65 1543.21 Q1592.6 1538.6 1592.6 1529.87 Q1592.6 1521.12 1595.65 1516.54 Q1598.73 1511.93 1604.54 1511.93 Z" fill="#000000" fill-rule="evenodd" fill-opacity="1" /><path clip-path="url(#clip740)" d="M1634.7 1515.64 Q1631.09 1515.64 1629.26 1519.2 Q1627.46 1522.75 1627.46 1529.87 Q1627.46 1536.98 1629.26 1540.55 Q1631.09 1544.09 1634.7 1544.09 Q1638.34 1544.09 1640.14 1540.55 Q1641.97 1536.98 1641.97 1529.87 Q1641.97 1522.75 1640.14 1519.2 Q1638.34 1515.64 1634.7 1515.64 M1634.7 1511.93 Q1640.51 1511.93 1643.57 1516.54 Q1646.65 1521.12 1646.65 1529.87 Q1646.65 1538.6 1643.57 1543.21 Q1640.51 1547.79 1634.7 1547.79 Q1628.89 1547.79 1625.82 1543.21 Q1622.76 1538.6 1622.76 1529.87 Q1622.76 1521.12 1625.82 1516.54 Q1628.89 1511.93 1634.7 1511.93 Z" fill="#000000" fill-rule="evenodd" fill-opacity="1" /><path clip-path="url(#clip740)" d="M2251.05 1543.18 L2258.69 1543.18 L2258.69 1516.82 L2250.38 1518.49 L2250.38 1514.23 L2258.64 1512.56 L2263.32 1512.56 L2263.32 1543.18 L2270.95 1543.18 L2270.95 1547.12 L2251.05 1547.12 L2251.05 1543.18 Z" fill="#000000" fill-rule="evenodd" fill-opacity="1" /><path clip-path="url(#clip740)" d="M2280.45 1512.56 L2298.8 1512.56 L2298.8 1516.5 L2284.73 1516.5 L2284.73 1524.97 Q2285.75 1524.62 2286.76 1524.46 Q2287.78 1524.27 2288.8 1524.27 Q2294.59 1524.27 2297.97 1527.44 Q2301.35 1530.62 2301.35 1536.03 Q2301.35 1541.61 2297.88 1544.71 Q2294.4 1547.79 2288.08 1547.79 Q2285.91 1547.79 2283.64 1547.42 Q2281.39 1547.05 2278.99 1546.31 L2278.99 1541.61 Q2281.07 1542.74 2283.29 1543.3 Q2285.51 1543.86 2287.99 1543.86 Q2292 1543.86 2294.33 1541.75 Q2296.67 1539.64 2296.67 1536.03 Q2296.67 1532.42 2294.33 1530.31 Q2292 1528.21 2287.99 1528.21 Q2286.12 1528.21 2284.24 1528.62 Q2282.39 1529.04 2280.45 1529.92 L2280.45 1512.56 Z" fill="#000000" fill-rule="evenodd" fill-opacity="1" /><path clip-path="url(#clip740)" d="M2320.56 1515.64 Q2316.95 1515.64 2315.12 1519.2 Q2313.32 1522.75 2313.32 1529.87 Q2313.32 1536.98 2315.12 1540.55 Q2316.95 1544.09 2320.56 1544.09 Q2324.19 1544.09 2326 1540.55 Q2327.83 1536.98 2327.83 1529.87 Q2327.83 1522.75 2326 1519.2 Q2324.19 1515.64 2320.56 1515.64 M2320.56 1511.93 Q2326.37 1511.93 2329.43 1516.54 Q2332.5 1521.12 2332.5 1529.87 Q2332.5 1538.6 2329.43 1543.21 Q2326.37 1547.79 2320.56 1547.79 Q2314.75 1547.79 2311.67 1543.21 Q2308.62 1538.6 2308.62 1529.87 Q2308.62 1521.12 2311.67 1516.54 Q2314.75 1511.93 2320.56 1511.93 Z" fill="#000000" fill-rule="evenodd" fill-opacity="1" /><polyline clip-path="url(#clip744)" style="stroke:#000000; stroke-width:2; stroke-opacity:0.1; fill:none" points="
  186.274,1473.35 2352.76,1473.35 
  "/>
<polyline clip-path="url(#clip744)" style="stroke:#000000; stroke-width:2; stroke-opacity:0.1; fill:none" points="
  186.274,1357.18 2352.76,1357.18 
  "/>
<polyline clip-path="url(#clip744)" style="stroke:#000000; stroke-width:2; stroke-opacity:0.1; fill:none" points="
  186.274,1241.01 2352.76,1241.01 
  "/>
<polyline clip-path="url(#clip744)" style="stroke:#000000; stroke-width:2; stroke-opacity:0.1; fill:none" points="
  186.274,1124.84 2352.76,1124.84 
  "/>
<polyline clip-path="url(#clip740)" style="stroke:#000000; stroke-width:4; stroke-opacity:1; fill:none" points="
  186.274,1486.45 186.274,1113.91 
  "/>
<polyline clip-path="url(#clip740)" style="stroke:#000000; stroke-width:4; stroke-opacity:1; fill:none" points="
  186.274,1473.35 212.272,1473.35 
  "/>
<polyline clip-path="url(#clip740)" style="stroke:#000000; stroke-width:4; stroke-opacity:1; fill:none" points="
  186.274,1357.18 212.272,1357.18 
  "/>
<polyline clip-path="url(#clip740)" style="stroke:#000000; stroke-width:4; stroke-opacity:1; fill:none" points="
  186.274,1241.01 212.272,1241.01 
  "/>
<polyline clip-path="url(#clip740)" style="stroke:#000000; stroke-width:4; stroke-opacity:1; fill:none" points="
  186.274,1124.84 212.272,1124.84 
  "/>
<path clip-path="url(#clip740)" d="M138.33 1459.15 Q134.719 1459.15 132.89 1462.71 Q131.084 1466.25 131.084 1473.38 Q131.084 1480.49 132.89 1484.06 Q134.719 1487.6 138.33 1487.6 Q141.964 1487.6 143.769 1484.06 Q145.598 1480.49 145.598 1473.38 Q145.598 1466.25 143.769 1462.71 Q141.964 1459.15 138.33 1459.15 M138.33 1455.44 Q144.14 1455.44 147.195 1460.05 Q150.274 1464.63 150.274 1473.38 Q150.274 1482.11 147.195 1486.72 Q144.14 1491.3 138.33 1491.3 Q132.519 1491.3 129.441 1486.72 Q126.385 1482.11 126.385 1473.38 Q126.385 1464.63 129.441 1460.05 Q132.519 1455.44 138.33 1455.44 Z" fill="#000000" fill-rule="evenodd" fill-opacity="1" /><path clip-path="url(#clip740)" d="M130.367 1370.53 L138.006 1370.53 L138.006 1344.16 L129.695 1345.83 L129.695 1341.57 L137.959 1339.9 L142.635 1339.9 L142.635 1370.53 L150.274 1370.53 L150.274 1374.46 L130.367 1374.46 L130.367 1370.53 Z" fill="#000000" fill-rule="evenodd" fill-opacity="1" /><path clip-path="url(#clip740)" d="M133.955 1254.36 L150.274 1254.36 L150.274 1258.29 L128.33 1258.29 L128.33 1254.36 Q130.992 1251.6 135.575 1246.97 Q140.181 1242.32 141.362 1240.98 Q143.607 1238.45 144.487 1236.72 Q145.39 1234.96 145.39 1233.27 Q145.39 1230.52 143.445 1228.78 Q141.524 1227.04 138.422 1227.04 Q136.223 1227.04 133.769 1227.81 Q131.339 1228.57 128.561 1230.12 L128.561 1225.4 Q131.385 1224.27 133.839 1223.69 Q136.293 1223.11 138.33 1223.11 Q143.7 1223.11 146.894 1225.79 Q150.089 1228.48 150.089 1232.97 Q150.089 1235.1 149.279 1237.02 Q148.492 1238.92 146.385 1241.51 Q145.806 1242.18 142.705 1245.4 Q139.603 1248.59 133.955 1254.36 Z" fill="#000000" fill-rule="evenodd" fill-opacity="1" /><path clip-path="url(#clip740)" d="M143.144 1123.49 Q146.501 1124.21 148.376 1126.48 Q150.274 1128.74 150.274 1132.08 Q150.274 1137.19 146.756 1139.99 Q143.237 1142.8 136.756 1142.8 Q134.58 1142.8 132.265 1142.36 Q129.973 1141.94 127.519 1141.08 L127.519 1136.57 Q129.464 1137.7 131.779 1138.28 Q134.094 1138.86 136.617 1138.86 Q141.015 1138.86 143.306 1137.12 Q145.621 1135.39 145.621 1132.08 Q145.621 1129.02 143.468 1127.31 Q141.339 1125.57 137.519 1125.57 L133.492 1125.57 L133.492 1121.73 L137.705 1121.73 Q141.154 1121.73 142.982 1120.37 Q144.811 1118.98 144.811 1116.38 Q144.811 1113.72 142.913 1112.31 Q141.038 1110.87 137.519 1110.87 Q135.598 1110.87 133.399 1111.29 Q131.2 1111.71 128.561 1112.59 L128.561 1108.42 Q131.223 1107.68 133.538 1107.31 Q135.876 1106.94 137.936 1106.94 Q143.26 1106.94 146.362 1109.37 Q149.464 1111.78 149.464 1115.9 Q149.464 1118.77 147.82 1120.76 Q146.177 1122.73 143.144 1123.49 Z" fill="#000000" fill-rule="evenodd" fill-opacity="1" /><polyline clip-path="url(#clip744)" style="stroke:#009af9; stroke-width:4; stroke-opacity:1; fill:none" points="
  247.59,1472.64 261.307,1473.78 275.024,1475.9 288.741,1475.07 302.458,1473.11 316.175,1471.54 329.892,1469.8 343.609,1468.71 357.326,1467.4 371.044,1467.12 
  384.761,1464.47 398.478,1463.95 412.195,1462.87 425.912,1462.57 439.629,1462.38 453.346,1461.76 467.063,1460.89 480.781,1459.64 494.498,1459.93 508.215,1456.94 
  521.932,1456.57 535.649,1453.83 549.366,1450.7 563.083,1449.04 576.8,1448.34 590.518,1445.03 604.235,1441.51 617.952,1439.2 631.669,1436.74 645.386,1434.4 
  659.103,1433.48 672.82,1431.08 686.537,1429.87 700.254,1427.16 713.972,1423.06 727.689,1422.09 741.406,1421.02 755.123,1419.99 768.84,1416.38 782.557,1412.14 
  796.274,1409.01 809.991,1407.35 823.709,1406.16 837.426,1405.19 851.143,1402.5 864.86,1399.23 878.577,1396.48 892.294,1394.74 906.011,1391.88 919.728,1389.51 
  933.446,1385.71 947.163,1382.63 960.88,1380.93 974.597,1378.46 988.314,1376.48 1002.03,1372.74 1015.75,1371.1 1029.47,1368.06 1043.18,1364.24 1056.9,1362.65 
  1070.62,1359.98 1084.33,1359.21 1098.05,1357.37 1111.77,1356.63 1125.49,1354.58 1139.2,1352.41 1152.92,1350.65 1166.64,1348.5 1180.35,1345.18 1194.07,1343.58 
  1207.79,1339.35 1221.51,1333.14 1235.22,1330.1 1248.94,1328.2 1262.66,1326.2 1276.37,1322.4 1290.09,1318.79 1303.81,1318.41 1317.52,1313.5 1331.24,1310.66 
  1344.96,1307.94 1358.68,1305.71 1372.39,1303.68 1386.11,1300.09 1399.83,1298.03 1413.54,1295.46 1427.26,1293.65 1440.98,1291.07 1454.7,1289 1468.41,1289.43 
  1482.13,1285.16 1495.85,1283.81 1509.56,1281.55 1523.28,1278.32 1537,1276.76 1550.72,1272.96 1564.43,1270.41 1578.15,1268.16 1591.87,1265.28 1605.58,1263.62 
  1619.3,1260.63 1633.02,1260.05 1646.74,1256.65 1660.45,1254.1 1674.17,1251.25 1687.89,1247.48 1701.6,1245.69 1715.32,1243.75 1729.04,1240.2 1742.76,1237.98 
  1756.47,1232.95 1770.19,1231.59 1783.91,1226.7 1797.62,1225.88 1811.34,1222.05 1825.06,1219.58 1838.78,1215.39 1852.49,1213.89 1866.21,1209.97 1879.93,1206.89 
  1893.64,1205.6 1907.36,1202.89 1921.08,1197.23 1934.8,1194.78 1948.51,1192.52 1962.23,1189.95 1975.95,1188.23 1989.66,1184.58 2003.38,1181.13 2017.1,1178.38 
  2030.82,1174.1 2044.53,1171.85 2058.25,1168.47 2071.97,1166.41 2085.68,1165.39 2099.4,1162.64 2113.12,1160.64 2126.83,1156.61 2140.55,1153.98 2154.27,1151.86 
  2167.99,1147.63 2181.7,1143.72 2195.42,1141.68 2209.14,1140.8 2222.85,1139.13 2236.57,1135.98 2250.29,1133.05 2264.01,1130.6 2277.72,1126.55 2291.44,1124.45 
  
  "/>
<path clip-path="url(#clip740)" d="
M1986.81 1247.29 L2280.54 1247.29 L2280.54 1126.33 L1986.81 1126.33  Z
  " fill="#ffffff" fill-rule="evenodd" fill-opacity="1"/>
<polyline clip-path="url(#clip740)" style="stroke:#000000; stroke-width:4; stroke-opacity:1; fill:none" points="
  1986.81,1247.29 2280.54,1247.29 2280.54,1126.33 1986.81,1126.33 1986.81,1247.29 
  "/>
<polyline clip-path="url(#clip740)" style="stroke:#009af9; stroke-width:4; stroke-opacity:1; fill:none" points="
  2010.88,1186.81 2155.31,1186.81 
  "/>
<path clip-path="url(#clip740)" d="M2193.23 1206.5 Q2191.42 1211.13 2189.71 1212.54 Q2188 1213.95 2185.13 1213.95 L2181.72 1213.95 L2181.72 1210.38 L2184.22 1210.38 Q2185.98 1210.38 2186.96 1209.55 Q2187.93 1208.72 2189.11 1205.62 L2189.87 1203.67 L2179.39 1178.16 L2183.9 1178.16 L2192 1198.44 L2200.1 1178.16 L2204.62 1178.16 L2193.23 1206.5 Z" fill="#000000" fill-rule="evenodd" fill-opacity="1" /><path clip-path="url(#clip740)" d="M2225.27 1185.45 Q2228.62 1186.17 2230.5 1188.44 Q2232.4 1190.71 2232.4 1194.04 Q2232.4 1199.16 2228.88 1201.96 Q2225.36 1204.76 2218.88 1204.76 Q2216.7 1204.76 2214.39 1204.32 Q2212.09 1203.9 2209.64 1203.05 L2209.64 1198.53 Q2211.59 1199.67 2213.9 1200.25 Q2216.22 1200.82 2218.74 1200.82 Q2223.14 1200.82 2225.43 1199.09 Q2227.74 1197.35 2227.74 1194.04 Q2227.74 1190.99 2225.59 1189.27 Q2223.46 1187.54 2219.64 1187.54 L2215.61 1187.54 L2215.61 1183.7 L2219.83 1183.7 Q2223.28 1183.7 2225.1 1182.33 Q2226.93 1180.94 2226.93 1178.35 Q2226.93 1175.69 2225.03 1174.27 Q2223.16 1172.84 2219.64 1172.84 Q2217.72 1172.84 2215.52 1173.26 Q2213.32 1173.67 2210.68 1174.55 L2210.68 1170.39 Q2213.34 1169.64 2215.66 1169.27 Q2218 1168.9 2220.06 1168.9 Q2225.38 1168.9 2228.48 1171.33 Q2231.59 1173.74 2231.59 1177.86 Q2231.59 1180.73 2229.94 1182.72 Q2228.3 1184.69 2225.27 1185.45 Z" fill="#000000" fill-rule="evenodd" fill-opacity="1" /></svg>
